<?xml version="1.0" encoding="UTF-8"?>
<svg version="1.1" xmlns="http://www.w3.org/2000/svg" width="441" height="424">
<path d="M0 0 C3.84890788 3.14910644 7.50520224 6.76040448 9.75 11.25 C9.83527628 13.28232634 9.85716135 15.31747006 9.84765625 17.3515625 C9.84443359 18.56328125 9.84121094 19.775 9.83789062 21.0234375 C9.82951172 22.29445313 9.82113281 23.56546875 9.8125 24.875 C9.80798828 26.15375 9.80347656 27.4325 9.79882812 28.75 C9.78701203 31.91671292 9.77053815 35.08333356 9.75 38.25 C8.76 38.745 8.76 38.745 7.75 39.25 C8.11649658 39.69166504 8.48299316 40.13333008 8.8605957 40.58837891 C15.11876021 48.13800366 21.36352265 55.68917533 27.375 63.4375 C31.51558768 68.76817395 35.84365992 73.90188875 40.26782227 78.99853516 C44.22000674 83.57394135 47.96418338 88.28508588 51.66918945 93.06152344 C55.27256603 97.68933212 59.02316067 102.17305426 62.83178711 106.63256836 C66.24094825 110.62941036 69.5441059 114.69726683 72.80859375 118.8125 C75.57109621 122.28091355 78.38745282 125.70430343 81.19921875 129.1328125 C84.22775571 132.82910611 87.23826958 136.54001074 90.25 140.25 C95.4021502 146.59527971 100.56891929 152.92830824 105.75 159.25 C107.16697158 160.97891681 108.58362932 162.70809088 110 164.4375 C110.7425 165.33984375 111.485 166.2421875 112.25 167.171875 C114.1070827 169.45840808 115.93598898 171.75793161 117.75 174.078125 C123.4893925 181.36199938 129.29527816 187.89178305 136.27172852 194.00561523 C141.19840167 198.42344439 144.62978075 203.41278983 147.75 209.25 C148.27388306 210.08168701 148.27388306 210.08168701 148.80834961 210.93017578 C150.12358431 214.17035213 150.07401771 217.29766823 150.0859375 220.7421875 C150.09427109 221.47620285 150.10260468 222.2102182 150.1111908 222.96647644 C150.13067783 225.35286075 150.13063074 227.73854862 150.125 230.125 C150.12478851 230.93822723 150.12457703 231.75145447 150.12435913 232.58932495 C150.08979243 245.87489804 148.94465255 258.32218166 145.75 271.25 C145.40551154 272.80684155 145.0630447 274.36413188 144.72265625 275.921875 C140.03665025 296.319405 130.97259457 315.55976607 121.75 334.25 C121.09 334.25 120.43 334.25 119.75 334.25 C119.50507813 334.94738281 119.26015625 335.64476562 119.0078125 336.36328125 C104.846837 368.8631598 67.96411699 397.51361807 35.99462891 410.35693359 C29.99336815 412.59903438 23.93620293 414.58584245 17.75 416.25 C16.78827881 416.52521484 15.82655762 416.80042969 14.83569336 417.08398438 C4.3985059 419.73120535 -5.94568728 419.77428208 -16.66040039 419.75097656 C-19.78301742 419.75000913 -22.90312923 419.79165359 -26.02539062 419.8359375 C-68.65685337 420.08762934 -104.39035459 399.42382317 -134.25 370.25 C-136.73657359 367.69029189 -139.01120779 365.02766999 -141.25 362.25 C-142.45849609 360.79787109 -142.45849609 360.79787109 -143.69140625 359.31640625 C-173.71465585 322.69990089 -191.06439529 274.73719924 -191.625 227.375 C-191.63901855 226.58504639 -191.65303711 225.79509277 -191.66748047 224.98120117 C-191.59545789 216.33572152 -188.88025402 209.50010069 -183.9375 202.5 C-183.19886719 201.43265625 -182.46023437 200.3653125 -181.69921875 199.265625 C-179.14090777 196.11567911 -176.36604738 193.83599808 -173.25 191.25 C-171.39728669 189.17398222 -169.73172714 186.97480573 -168.0625 184.75 C-164.40283924 179.9793708 -160.6679539 175.31101166 -156.75 170.75 C-152.96741629 166.33485697 -149.31725471 161.84081359 -145.75 157.25 C-141.74918743 152.10122701 -137.61609011 147.0964859 -133.375 142.14453125 C-130.06208736 138.2575059 -126.8835169 134.2826226 -123.75 130.25 C-119.74918743 125.10122701 -115.61609011 120.0964859 -111.375 115.14453125 C-108.06208736 111.2575059 -104.8835169 107.2826226 -101.75 103.25 C-97.74918743 98.10122701 -93.61609011 93.0964859 -89.375 88.14453125 C-86.06208736 84.2575059 -82.8835169 80.2826226 -79.75 76.25 C-76.18270957 71.65914044 -72.53177036 67.16587588 -68.75 62.75 C-61.96070051 54.81897479 -55.4781966 46.62938293 -49.25 38.25 C-49.91 38.25 -50.57 38.25 -51.25 38.25 C-51.36651725 33.87522526 -51.43736 29.50085173 -51.5 25.125 C-51.53351563 23.8875 -51.56703125 22.65 -51.6015625 21.375 C-51.72375773 10.01084379 -51.72375773 10.01084379 -47.25 5.25 C-46.42048828 4.36248047 -46.42048828 4.36248047 -45.57421875 3.45703125 C-32.94923296 -7.29981822 -14.37055394 -7.73799058 0 0 Z M-41.8125 9.75 C-47.16954509 16.42733665 -45.25 23.54168166 -45.25 32.25 C-29.08 32.25 -12.91 32.25 3.75 32.25 C4.88465008 19.57319237 4.88465008 19.57319237 0.015625 9.30078125 C-0.64953125 8.72714844 -1.3146875 8.15351563 -2 7.5625 C-2.65484375 6.98113281 -3.3096875 6.39976563 -3.984375 5.80078125 C-14.52125232 -1.41152961 -33.21421616 0.34246592 -41.8125 9.75 Z M-49.25 49.25 C-50.20227427 50.45510263 -51.16667842 51.65082519 -52.1484375 52.83203125 C-52.97704088 53.90648398 -53.80257462 54.98331107 -54.625 56.0625 C-58.22854141 60.72110941 -61.91703201 65.27831774 -65.75 69.75 C-69.46258934 74.08737015 -73.05719844 78.49345755 -76.5625 83 C-82.45528423 90.5747587 -88.56473805 97.96434762 -94.68408203 105.35644531 C-100.98898941 112.98052726 -107.2173424 120.66749652 -113.45336914 128.34790039 C-116.54491428 132.15465036 -119.64212113 135.95655962 -122.75 139.75 C-132.36476408 151.49550851 -141.91649194 163.27916802 -151.25 175.25 C-150.59 175.58 -149.93 175.91 -149.25 176.25 C-146.55483839 175.12878846 -143.94474405 173.94239422 -141.3125 172.6875 C-73.07977782 141.44825809 20.92997327 142.71707058 90.75 168.25 C94.62418617 169.80312266 98.44899944 171.44619877 102.21069336 173.25561523 C103.70124763 173.96953298 105.2231612 174.61739123 106.75 175.25 C107.41 174.92 108.07 174.59 108.75 174.25 C108.39397705 173.81880859 108.0379541 173.38761719 107.67114258 172.94335938 C99.98138605 163.62661614 92.32515991 154.28407697 84.71484375 144.90234375 C80.74220231 140.00541884 76.74662152 135.12735848 72.75 130.25 C71.24985719 128.41678352 69.74985918 126.58344854 68.25 124.75 C67.5075 123.8425 66.765 122.935 66 122 C59.25 113.75 59.25 113.75 56.984375 110.98046875 C55.53702949 109.21177205 54.08914699 107.44351457 52.640625 105.67578125 C47.59674935 99.51820312 42.57403544 93.34370109 37.55664062 87.16455078 C32.9681923 81.5150574 28.36294873 75.87950595 23.75 70.25 C21.50210618 67.50301088 19.25463959 64.7556742 17.0078125 62.0078125 C15.48403112 60.14658472 13.95793284 58.2872517 12.4296875 56.4296875 C11.66914063 55.50414063 10.90859375 54.57859375 10.125 53.625 C9.45210937 52.80773438 8.77921875 51.99046875 8.0859375 51.1484375 C5.75 48.25 5.75 48.25 4.60009766 45.95288086 C2.62630395 42.50914642 0.8373066 39.84213419 -3.14764404 38.71166992 C-8.06618718 37.93234712 -12.97752773 37.92631588 -17.94628906 38.02172852 C-20.61547234 38.06235498 -23.26919791 38.00184614 -25.9375 37.93164062 C-37.15334769 37.85693325 -42.93855353 39.26326201 -49.25 49.25 Z M-74.25 160.25 C-75.3426416 160.42692383 -76.4352832 160.60384766 -77.56103516 160.78613281 C-115.59606063 167.11892354 -156.7342966 178.10560711 -180.375 210.75 C-185.1947447 217.66829382 -185.11501917 224.99771716 -184.25 233.25 C-179.27261738 249.77327835 -164.53032478 260.50604797 -150.10986328 268.42529297 C-83.16256638 303.86797956 7.87517755 302.91231293 78.77832031 281.328125 C96.36144845 275.71104447 115.18216879 268.10234011 128.75 255.25 C129.8328125 254.26580078 129.8328125 254.26580078 130.9375 253.26171875 C139.59556865 245.06520156 143.4183258 237.00147184 144.89453125 225.2265625 C144.52949819 217.70885468 140.88805781 212.62654312 135.9375 207.25 C134.84002723 206.02821173 133.74494399 204.80427254 132.65234375 203.578125 C132.13784668 203.00126953 131.62334961 202.42441406 131.09326172 201.83007812 C129.53236526 199.99399636 128.26852137 198.04627054 127 196 C110.06027388 173.10452003 64.78462434 165.19355474 38.55078125 161.0859375 C23.76635474 158.88426896 9.15086741 157.11354143 -5.8125 157.046875 C-6.87433502 157.03986069 -7.93617004 157.03284637 -9.03018188 157.02561951 C-12.43683163 157.00822167 -15.84330746 157.00176749 -19.25 157 C-20.41472839 156.99932526 -21.57945679 156.99865051 -22.77947998 156.99795532 C-40.11697717 157.01391987 -57.10775144 157.41171577 -74.25 160.25 Z M-104.25 322.25 C-103.25 324.25 -103.25 324.25 -103.25 324.25 Z " fill="#090909" transform="translate(237.25,4.75)"/>
<path d="M0 0 C3.84890788 3.14910644 7.50520224 6.76040448 9.75 11.25 C9.83527628 13.28232634 9.85716135 15.31747006 9.84765625 17.3515625 C9.84443359 18.56328125 9.84121094 19.775 9.83789062 21.0234375 C9.82951172 22.29445313 9.82113281 23.56546875 9.8125 24.875 C9.80798828 26.15375 9.80347656 27.4325 9.79882812 28.75 C9.78701203 31.91671292 9.77053815 35.08333356 9.75 38.25 C8.76 38.745 8.76 38.745 7.75 39.25 C8.11649658 39.69166504 8.48299316 40.13333008 8.8605957 40.58837891 C15.11876021 48.13800366 21.36352265 55.68917533 27.375 63.4375 C31.51558768 68.76817395 35.84365992 73.90188875 40.26782227 78.99853516 C44.22000674 83.57394135 47.96418338 88.28508588 51.66918945 93.06152344 C55.27256603 97.68933212 59.02316067 102.17305426 62.83178711 106.63256836 C66.24094825 110.62941036 69.5441059 114.69726683 72.80859375 118.8125 C75.57109621 122.28091355 78.38745282 125.70430343 81.19921875 129.1328125 C84.22775571 132.82910611 87.23826958 136.54001074 90.25 140.25 C95.4021502 146.59527971 100.56891929 152.92830824 105.75 159.25 C107.16697158 160.97891681 108.58362932 162.70809088 110 164.4375 C110.7425 165.33984375 111.485 166.2421875 112.25 167.171875 C114.1070827 169.45840808 115.93598898 171.75793161 117.75 174.078125 C123.4893925 181.36199938 129.29527816 187.89178305 136.27172852 194.00561523 C141.19840167 198.42344439 144.62978075 203.41278983 147.75 209.25 C148.10215576 209.82911133 148.45431152 210.40822266 148.81713867 211.00488281 C150.04363637 213.9566946 149.97542581 216.35486442 149.9453125 219.546875 C149.93886719 220.75214844 149.93242187 221.95742187 149.92578125 223.19921875 C149.90902344 224.45347656 149.89226562 225.70773438 149.875 227 C149.86597656 228.26972656 149.85695313 229.53945312 149.84765625 230.84765625 C149.82409005 233.98196093 149.79118832 237.11588541 149.75 240.25 C147.44 238.93 145.13 237.61 142.75 236.25 C142.85699219 235.3321875 142.96398437 234.414375 143.07421875 233.46875 C143.25404297 231.62796875 143.25404297 231.62796875 143.4375 229.75 C143.62892578 227.94015625 143.62892578 227.94015625 143.82421875 226.09375 C143.66839486 218.02371253 140.20455205 212.96881997 134.875 207.1875 C133.83306286 206.03253476 132.793981 204.87498708 131.7578125 203.71484375 C131.24766602 203.14636719 130.73751953 202.57789063 130.21191406 201.9921875 C128.76660584 200.26978946 127.5428167 198.49600404 126.3046875 196.62109375 C123.68601505 192.88065413 120.63653145 190.70095238 116.75 188.375 C116.06139893 187.95573242 115.37279785 187.53646484 114.66333008 187.10449219 C79.44114919 166.3539233 34.57365534 158.22680781 -5.8125 158.046875 C-6.87433502 158.03986069 -7.93617004 158.03284637 -9.03018188 158.02561951 C-12.43683163 158.00822167 -15.84330746 158.00176749 -19.25 158 C-20.41472839 157.99932526 -21.57945679 157.99865051 -22.77947998 157.99795532 C-40.11697717 158.01391987 -57.10775144 158.41171577 -74.25 161.25 C-75.3426416 161.42692383 -76.4352832 161.60384766 -77.56103516 161.78613281 C-114.81886334 167.98952103 -156.10900933 178.66479642 -179.3125 210.6875 C-182.25468681 214.88963505 -183.41439908 218.12631588 -183.27734375 223.25390625 C-183.26509766 223.99447266 -183.25285156 224.73503906 -183.24023438 225.49804688 C-183.20498703 227.04501351 -183.16590461 228.59189737 -183.12304688 230.13867188 C-183.03720016 235.93080024 -183.03720016 235.93080024 -185.25 239.25 C-186.24 239.58 -187.23 239.91 -188.25 240.25 C-187.88417217 243.42050782 -187.13052665 244.36947335 -184.8125 246.6875 C-181.53353167 250.48026678 -181.4247758 254.41111589 -180.8203125 259.2578125 C-177.64250524 283.31835316 -168.00939245 305.73121511 -157.25 327.25 C-158.24 327.25 -159.23 327.25 -160.25 327.25 C-159.92 329.56 -159.59 331.87 -159.25 334.25 C-157.27 333.59 -155.29 332.93 -153.25 332.25 C-152.96769531 332.8584375 -152.68539062 333.466875 -152.39453125 334.09375 C-142.76328267 353.2997589 -124.88017781 373.09320312 -106.6875 384.5625 C-104.13912143 386.32676208 -103.40860041 387.45004901 -102.25 390.25 C-101.59 390.58 -100.93 390.91 -100.25 391.25 C-99.92 390.59 -99.59 389.93 -99.25 389.25 C-98.72535156 389.6625 -98.20070313 390.075 -97.66015625 390.5 C-80.33302766 403.41606257 -52.99697988 414.61979244 -31.015625 412.9453125 C-29.77296875 413.04585938 -28.5303125 413.14640625 -27.25 413.25 C-24.75 416.25 -24.75 416.25 -23.25 419.25 C-62.92690279 421.05897733 -97.26971673 403.94932351 -126.29174805 377.74951172 C-131.63927562 372.85977592 -136.69615432 367.89995733 -141.25 362.25 C-142.45849609 360.79787109 -142.45849609 360.79787109 -143.69140625 359.31640625 C-173.71465585 322.69990089 -191.06439529 274.73719924 -191.625 227.375 C-191.63901855 226.58504639 -191.65303711 225.79509277 -191.66748047 224.98120117 C-191.59545789 216.33572152 -188.88025402 209.50010069 -183.9375 202.5 C-183.19886719 201.43265625 -182.46023437 200.3653125 -181.69921875 199.265625 C-179.14090777 196.11567911 -176.36604738 193.83599808 -173.25 191.25 C-171.39728669 189.17398222 -169.73172714 186.97480573 -168.0625 184.75 C-164.40283924 179.9793708 -160.6679539 175.31101166 -156.75 170.75 C-152.96741629 166.33485697 -149.31725471 161.84081359 -145.75 157.25 C-141.74918743 152.10122701 -137.61609011 147.0964859 -133.375 142.14453125 C-130.06208736 138.2575059 -126.8835169 134.2826226 -123.75 130.25 C-119.74918743 125.10122701 -115.61609011 120.0964859 -111.375 115.14453125 C-108.06208736 111.2575059 -104.8835169 107.2826226 -101.75 103.25 C-97.74918743 98.10122701 -93.61609011 93.0964859 -89.375 88.14453125 C-86.06208736 84.2575059 -82.8835169 80.2826226 -79.75 76.25 C-76.18270957 71.65914044 -72.53177036 67.16587588 -68.75 62.75 C-61.96070051 54.81897479 -55.4781966 46.62938293 -49.25 38.25 C-49.91 38.25 -50.57 38.25 -51.25 38.25 C-51.36651725 33.87522526 -51.43736 29.50085173 -51.5 25.125 C-51.53351563 23.8875 -51.56703125 22.65 -51.6015625 21.375 C-51.72375773 10.01084379 -51.72375773 10.01084379 -47.25 5.25 C-46.42048828 4.36248047 -46.42048828 4.36248047 -45.57421875 3.45703125 C-32.94923296 -7.29981822 -14.37055394 -7.73799058 0 0 Z M-41.8125 9.75 C-47.16954509 16.42733665 -45.25 23.54168166 -45.25 32.25 C-29.08 32.25 -12.91 32.25 3.75 32.25 C4.88465008 19.57319237 4.88465008 19.57319237 0.015625 9.30078125 C-0.64953125 8.72714844 -1.3146875 8.15351563 -2 7.5625 C-2.65484375 6.98113281 -3.3096875 6.39976563 -3.984375 5.80078125 C-14.52125232 -1.41152961 -33.21421616 0.34246592 -41.8125 9.75 Z M-49.25 49.25 C-50.20227427 50.45510263 -51.16667842 51.65082519 -52.1484375 52.83203125 C-52.97704088 53.90648398 -53.80257462 54.98331107 -54.625 56.0625 C-58.22854141 60.72110941 -61.91703201 65.27831774 -65.75 69.75 C-69.46258934 74.08737015 -73.05719844 78.49345755 -76.5625 83 C-82.45528423 90.5747587 -88.56473805 97.96434762 -94.68408203 105.35644531 C-100.98898941 112.98052726 -107.2173424 120.66749652 -113.45336914 128.34790039 C-116.54491428 132.15465036 -119.64212113 135.95655962 -122.75 139.75 C-132.36476408 151.49550851 -141.91649194 163.27916802 -151.25 175.25 C-150.59 175.58 -149.93 175.91 -149.25 176.25 C-146.55483839 175.12878846 -143.94474405 173.94239422 -141.3125 172.6875 C-73.07977782 141.44825809 20.92997327 142.71707058 90.75 168.25 C94.62418617 169.80312266 98.44899944 171.44619877 102.21069336 173.25561523 C103.70124763 173.96953298 105.2231612 174.61739123 106.75 175.25 C107.41 174.92 108.07 174.59 108.75 174.25 C108.39397705 173.81880859 108.0379541 173.38761719 107.67114258 172.94335938 C99.98138605 163.62661614 92.32515991 154.28407697 84.71484375 144.90234375 C80.74220231 140.00541884 76.74662152 135.12735848 72.75 130.25 C71.24985719 128.41678352 69.74985918 126.58344854 68.25 124.75 C67.5075 123.8425 66.765 122.935 66 122 C59.25 113.75 59.25 113.75 56.984375 110.98046875 C55.53702949 109.21177205 54.08914699 107.44351457 52.640625 105.67578125 C47.59674935 99.51820312 42.57403544 93.34370109 37.55664062 87.16455078 C32.9681923 81.5150574 28.36294873 75.87950595 23.75 70.25 C21.50210618 67.50301088 19.25463959 64.7556742 17.0078125 62.0078125 C15.48403112 60.14658472 13.95793284 58.2872517 12.4296875 56.4296875 C11.66914063 55.50414063 10.90859375 54.57859375 10.125 53.625 C9.45210937 52.80773438 8.77921875 51.99046875 8.0859375 51.1484375 C5.75 48.25 5.75 48.25 4.60009766 45.95288086 C2.62630395 42.50914642 0.8373066 39.84213419 -3.14764404 38.71166992 C-8.06618718 37.93234712 -12.97752773 37.92631588 -17.94628906 38.02172852 C-20.61547234 38.06235498 -23.26919791 38.00184614 -25.9375 37.93164062 C-37.15334769 37.85693325 -42.93855353 39.26326201 -49.25 49.25 Z " fill="#202020" transform="translate(237.25,4.75)"/>
<path d="M0 0 C0.33 0 0.66 0 1 0 C1 33.99 1 67.98 1 103 C-11.6 92.2 -11.6 92.2 -13 88 C-14.59066286 86.38755614 -14.59066286 86.38755614 -16.5625 84.8125 C-19.61921466 82.21374078 -22.57166636 79.5589308 -25.4375 76.75 C-26.09621094 76.10546875 -26.75492188 75.4609375 -27.43359375 74.796875 C-29 73 -29 73 -30 70 C-31.59066286 68.38755614 -31.59066286 68.38755614 -33.5625 66.8125 C-36.61921466 64.21374078 -39.57166636 61.5589308 -42.4375 58.75 C-43.09621094 58.10546875 -43.75492188 57.4609375 -44.43359375 56.796875 C-46 55 -46 55 -47 52 C-46.195625 51.2265625 -46.195625 51.2265625 -45.375 50.4375 C-42.94523817 47.94379707 -40.70248757 45.348586 -38.46484375 42.68359375 C-37.03063799 41.03521326 -35.63170248 39.45482416 -34 38 C-33.34 38 -32.68 38 -32 38 C-31.90589844 37.41476562 -31.81179687 36.82953125 -31.71484375 36.2265625 C-30.84124165 33.50550678 -29.62956132 32.32603085 -27.5625 30.375 C-26.94503906 29.78460938 -26.32757813 29.19421875 -25.69140625 28.5859375 C-25.13324219 28.06257813 -24.57507813 27.53921875 -24 27 C-21.69720335 24.69720335 -19.63523414 22.24069925 -17.53515625 19.75390625 C-16.07478974 18.08544681 -14.656159 16.4756512 -13 15 C-12.34 15 -11.68 15 -11 15 C-10.85884766 14.12214844 -10.85884766 14.12214844 -10.71484375 13.2265625 C-9.84124165 10.50550678 -8.62956132 9.32603085 -6.5625 7.375 C-5.94503906 6.78460938 -5.32757813 6.19421875 -4.69140625 5.5859375 C-4.13324219 5.06257813 -3.57507813 4.53921875 -3 4 C-0.94729537 2.15811388 -0.94729537 2.15811388 0 0 Z " fill="#73AFD6" transform="translate(213,311)"/>
<path d="M0 0 C1.77262485 0.40397324 3.54606115 0.8044032 5.3203125 1.20117188 C18.09486446 4.12574297 18.09486446 4.12574297 21.75 6.5625 C17.97114881 12.80636338 13.95178935 18.78368775 9.5 24.5625 C9.07605957 25.11381592 8.65211914 25.66513184 8.21533203 26.2331543 C6.18753005 28.83487009 4.12154509 31.27203338 1.75 33.5625 C0.8448989 34.61711633 -0.05055212 35.68007147 -0.9375 36.75 C-8.72194496 45.88323493 -17.59583335 53.49113638 -27.25 60.5625 C-32.22607423 58.37908552 -35.29181045 54.6072233 -38.9375 50.6875 C-39.62650391 49.96691406 -40.31550781 49.24632812 -41.02539062 48.50390625 C-41.68087891 47.80394531 -42.33636719 47.10398437 -43.01171875 46.3828125 C-43.60944092 45.74617676 -44.20716309 45.10954102 -44.82299805 44.45361328 C-46.33628595 42.44815082 -46.69648915 40.97341898 -47.25 38.5625 C-48.57467746 37.8787955 -49.90863633 37.21285814 -51.25 36.5625 C-52.5 34.4375 -52.5 34.4375 -53.25 32.5625 C-52.445625 31.7890625 -52.445625 31.7890625 -51.625 31 C-49.81743361 29.14486608 -48.15874607 27.29302468 -46.5 25.3125 C-42.5120981 20.60413745 -38.09205741 16.34077058 -33.68359375 12.03125 C-31.71218873 10.0114999 -29.94047452 7.84410718 -28.140625 5.671875 C-27.51671875 4.97578125 -26.8928125 4.2796875 -26.25 3.5625 C-25.71197754 2.61419312 -25.71197754 2.61419312 -25.16308594 1.64672852 C-19.13082561 -7.03376497 -8.60247988 -2.13319321 0 0 Z " fill="#74B0D6" transform="translate(329.25,331.4375)"/>
<path d="M0 0 C1.32 0.99 2.64 1.98 4 3 C4 3.99 4 4.98 4 6 C4.59039062 6.26425781 5.18078125 6.52851563 5.7890625 6.80078125 C11.41772931 9.85378604 15.59089778 15.57575417 19.64453125 20.43359375 C21.10616482 22.17488008 21.10616482 22.17488008 23.375 24.25 C25 26 25 26 25 29 C25.53625 29.20625 26.0725 29.4125 26.625 29.625 C29.90822941 31.52581703 32.69191747 33.97641189 35 37 C35 37.99 35 38.98 35 40 C35.58394531 40.26039063 36.16789062 40.52078125 36.76953125 40.7890625 C39.14336694 42.07783494 40.77514054 43.4750854 42.6875 45.375 C43.28949219 45.96023438 43.89148438 46.54546875 44.51171875 47.1484375 C46.10135013 49.12608914 46.5905426 50.5214179 47 53 C46.16855469 53.68835938 46.16855469 53.68835938 45.3203125 54.390625 C44.59585938 55.00421875 43.87140625 55.6178125 43.125 56.25 C42.40570313 56.85328125 41.68640625 57.4565625 40.9453125 58.078125 C38.95370143 59.82862917 38.95370143 59.82862917 38.1171875 61.84765625 C36.37707701 65.20010689 33.68284626 67.56476468 31 70.1875 C30.4534375 70.73341797 29.906875 71.27933594 29.34375 71.84179688 C25.28148496 75.85925752 25.28148496 75.85925752 23 77 C22.58878906 77.71671875 22.17757812 78.4334375 21.75390625 79.171875 C19.56394043 82.70313392 16.896199 85.35862469 13.9375 88.25 C13.39544922 88.79140625 12.85339844 89.3328125 12.29492188 89.890625 C8.2818031 93.85909845 8.2818031 93.85909845 6 95 C5.525625 95.804375 5.05125 96.60875 4.5625 97.4375 C3 100 3 100 0 102 C0 68.34 0 34.68 0 0 Z " fill="#73AFD6" transform="translate(220,313)"/>
<path d="M0 0 C1.5 1.6875 1.5 1.6875 3 4 C5.57557406 6.64311534 8.21757285 9.2122227 10.859375 11.7890625 C11.82294136 12.73434983 12.7864829 13.67966246 13.75 14.625 C14.24371094 15.10195313 14.73742187 15.57890625 15.24609375 16.0703125 C17.58387083 18.37606524 18.9453094 19.83592819 20 23 C21.72765164 24.71289005 21.72765164 24.71289005 23.8125 26.375 C26.94473143 29.02361939 29.57483296 31.66539533 32 35 C31.360625 35.2475 30.72125 35.495 30.0625 35.75 C29.381875 36.1625 28.70125 36.575 28 37 C27.86335938 37.61101562 27.72671875 38.22203125 27.5859375 38.8515625 C26.84042182 41.58511998 25.60882941 42.69353731 23.5625 44.625 C22.94503906 45.21539062 22.32757813 45.80578125 21.69140625 46.4140625 C21.13324219 46.93742187 20.57507813 47.46078125 20 48 C17.69720335 50.30279665 15.63523414 52.75930075 13.53515625 55.24609375 C12.07478974 56.91455319 10.656159 58.5243488 9 60 C8.34 60 7.68 60 7 60 C7 60.66 7 61.32 7 62 C2.61351632 60.5747887 -0.04164598 58.40188202 -3.375 55.25 C-6.53939512 52.29457436 -9.69197947 49.35672159 -13 46.5625 C-17.58653846 42.64483173 -17.58653846 42.64483173 -19 41 C-19 40.01 -19 39.02 -19 38 C-19.59296875 37.74089844 -20.1859375 37.48179687 -20.796875 37.21484375 C-29.93033272 32.17848674 -37.36437565 19.07809768 -42 10 C-42 9.34 -42 8.68 -42 8 C-36.82362904 6.85401311 -31.6458129 5.71488905 -26.46655273 4.58203125 C-24.70572431 4.19588325 -22.94530161 3.80788022 -21.18530273 3.41796875 C-18.65193002 2.85706386 -16.11716159 2.30289927 -13.58203125 1.75 C-12.40674614 1.48751465 -12.40674614 1.48751465 -11.2077179 1.21972656 C-3.75616374 -0.39224209 -3.75616374 -0.39224209 0 0 Z " fill="#73AFD6" transform="translate(126,329)"/>
<path d="M0 0 C0.2475 1.19625 0.495 2.3925 0.75 3.625 C3.09594674 12.76776505 9.50937778 18.29512229 17.33984375 23.01171875 C51.65298017 41.84335642 95.59480001 41.92094339 132.58300781 31.71191406 C145.24725131 27.9817187 160.12864269 22.18673879 168 11 C169.63227584 7.40996475 170.89827776 3.7841764 172 0 C178.75 -0.125 178.75 -0.125 181 1 C180.96672578 8.96917673 179.05464908 13.87887551 174 20 C173.44441406 20.67933594 172.88882813 21.35867187 172.31640625 22.05859375 C156.49351954 39.5148107 126.39044054 46.87580052 103.77374268 48.1227417 C97.97486645 48.33166497 92.17691087 48.3378128 86.375 48.3125 C85.48848755 48.31034485 84.6019751 48.3081897 83.68859863 48.30596924 C70.94108928 48.25617653 58.43804034 48.07907894 46 45 C45.18273437 44.80132324 44.36546875 44.60264648 43.5234375 44.39794922 C24.91360993 39.70683898 5.55778965 32.16892852 -6 16 C-8.84195893 11.05600045 -10.59558656 6.80696891 -10 1 C-6.78548731 -0.60725635 -3.56387464 -0.05748185 0 0 Z " fill="#1A3744" transform="translate(132,222)"/>
<path d="M0 0 C2.89563594 1.44781797 4.9219015 3.75909076 7.19140625 6.0234375 C7.69671371 6.52541656 8.20202118 7.02739563 8.72264099 7.54458618 C9.79061808 8.60749942 10.85723953 9.67177623 11.92260742 10.73730469 C13.5543415 12.36685243 15.19389382 13.98824361 16.83398438 15.609375 C17.87028155 16.64273813 18.90610486 17.67657672 19.94140625 18.7109375 C20.43306778 19.19541351 20.92472931 19.67988953 21.43128967 20.17904663 C23.69544628 22.4585486 24.9673648 23.90209441 26 27 C27.59066286 28.61244386 27.59066286 28.61244386 29.5625 30.1875 C32.64222869 32.80499093 35.61332892 35.48243032 38.5 38.3125 C39.1703125 38.96863281 39.840625 39.62476563 40.53125 40.30078125 C42 42 42 42 42 44 C43.51719983 45.53457367 43.51719983 45.53457367 45.5 47.125 C48.57587318 49.74579747 51.55103612 52.42095222 54.4375 55.25 C55.09621094 55.89453125 55.75492188 56.5390625 56.43359375 57.203125 C58 59 58 59 59 62 C60.63044124 63.65637688 60.63044124 63.65637688 62.5625 65.1875 C63.20316406 65.71730469 63.84382813 66.24710937 64.50390625 66.79296875 C64.99761719 67.19128906 65.49132812 67.58960938 66 68 C62.77463028 70.15024648 60.44878268 70.73388986 56.6875 71.5625 C55.57761719 71.81128906 54.46773437 72.06007813 53.32421875 72.31640625 C50.22308658 72.95412438 47.12598252 73.50033833 44 74 C43.01 74.165 42.02 74.33 41 74.5 C38 75 35 75.5 32 76 C30.88625 76.185625 29.7725 76.37125 28.625 76.5625 C27.325625 76.7790625 27.325625 76.7790625 26 77 C19.82544808 67.64996424 15.81048085 57.67610691 11.8125 47.25 C11.46727295 46.35063721 11.1220459 45.45127441 10.76635742 44.5246582 C8.95121997 39.72830307 7.3287952 34.95882208 6 30 C5.73058594 29.04996094 5.46117187 28.09992188 5.18359375 27.12109375 C4.93738281 26.23550781 4.69117188 25.34992188 4.4375 24.4375 C4.18871094 23.54933594 3.93992188 22.66117187 3.68359375 21.74609375 C2.96018032 18.84003868 2.45646095 15.95951318 2 13 C1.82339844 11.86820312 1.64679687 10.73640625 1.46484375 9.5703125 C1.29082031 8.43335938 1.11679687 7.29640625 0.9375 6.125 C0.76089844 4.97257812 0.58429687 3.82015625 0.40234375 2.6328125 C0.26957031 1.76398438 0.13679688 0.89515625 0 0 Z " fill="#75B0D5" transform="translate(54,255)"/>
<path d="M0 0 C1.2380296 3.71408881 0.62721941 5.51551598 -0.25 9.3125 C-1.51574334 14.84453341 -1.51574334 14.84453341 -2.66015625 20.40234375 C-6.55190084 40.37375161 -14.61080715 59.03414061 -24 77 C-26.04262517 76.71512349 -28.08407027 76.42177949 -30.125 76.125 C-31.26195312 75.96257812 -32.39890625 75.80015625 -33.5703125 75.6328125 C-36.86883908 75.02420053 -39.82875841 74.07256373 -43 73 C-44.9298619 72.62496611 -46.86826691 72.29150483 -48.8125 72 C-53.93492118 71.19422588 -58.95095056 70.17811154 -64 69 C-62.41013072 65.03467898 -59.64041394 62.41225505 -56.625 59.5 C-56.14289063 59.02691406 -55.66078125 58.55382812 -55.1640625 58.06640625 C-53.77911231 56.70780022 -52.38964235 55.3538063 -51 54 C-48.68030996 51.7256325 -46.61663958 49.52817179 -44.5625 47 C-40.93343748 42.67700822 -36.71881369 38.9905217 -32.49438477 35.26367188 C-29.60984389 32.67709456 -27.57664609 30.52728731 -26 27 C-24.30078125 25.0703125 -24.30078125 25.0703125 -22.3125 23.125 C-21.25289063 22.08666016 -21.25289063 22.08666016 -20.171875 21.02734375 C-17.65272005 18.67583041 -15.04471075 16.46834636 -12.34765625 14.32421875 C-10.72364609 12.92934152 -10.72364609 12.92934152 -10 10 C-8.66666667 9.33333333 -7.33333333 8.66666667 -6 8 C-4.3916876 6.13344768 -4.3916876 6.13344768 -3 4 C-2 2.66666667 -1 1.33333333 0 0 Z " fill="#74AFD5" transform="translate(379,255)"/>
<path d="M0 0 C0.33 1.32 0.66 2.64 1 4 C2.65 4.33 4.3 4.66 6 5 C6.22162857 7.77035709 6.42779249 10.54038995 6.625 13.3125 C6.68945312 14.09818359 6.75390625 14.88386719 6.8203125 15.69335938 C6.871875 16.45068359 6.9234375 17.20800781 6.9765625 17.98828125 C7.05511475 19.03302612 7.05511475 19.03302612 7.13525391 20.09887695 C7 22 7 22 5 25 C4.01 25.33 3.02 25.66 2 26 C2.36582783 29.17050782 3.11947335 30.11947335 5.4375 32.4375 C8.71646833 36.23026678 8.8252242 40.16111589 9.4296875 45.0078125 C12.60749476 69.06835316 22.24060755 91.48121511 33 113 C32.01 113 31.02 113 30 113 C30.33 115.31 30.66 117.62 31 120 C33.97 119.01 33.97 119.01 37 118 C37.28230469 118.6084375 37.56460938 119.216875 37.85546875 119.84375 C47.48671733 139.0497589 65.36982219 158.84320312 83.5625 170.3125 C86.11087857 172.07676208 86.84139959 173.20004901 88 176 C88.66 176.33 89.32 176.66 90 177 C90.33 176.34 90.66 175.68 91 175 C91.52464844 175.4125 92.04929687 175.825 92.58984375 176.25 C109.91697234 189.16606257 137.25302012 200.36979244 159.234375 198.6953125 C160.47703125 198.79585937 161.7196875 198.89640625 163 199 C165.5 202 165.5 202 167 205 C127.32309721 206.80897733 92.98028327 189.69932351 63.95825195 163.49951172 C58.61072438 158.60977592 53.55384568 153.64995733 49 148 C47.79150391 146.54787109 47.79150391 146.54787109 46.55859375 145.06640625 C14.84216616 106.38489255 -3.57446262 54.15251216 -1 4 C-0.69430999 2.66005877 -0.36815523 1.32414146 0 0 Z " fill="#1A3644" transform="translate(47,219)"/>
<path d="M0 0 C2.3613152 0.32898532 4.66346067 0.72631574 7 1.1875 C7.71115967 1.32406006 8.42231934 1.46062012 9.1550293 1.60131836 C15.13360494 2.7740113 21.05481138 4.15667027 26.97680664 5.58422852 C31.80145668 6.74082653 36.6291281 7.72688442 41.51953125 8.5703125 C52.49322107 10.47126664 63.27981311 12.99434012 74 16 C70.48839116 20.18738236 66.86610885 24.13389115 63 28 C62.05444532 29.09727692 61.11750287 30.2020114 60.1875 31.3125 C51.25 41.875 51.25 41.875 47 44 C45.9590934 45.64142963 44.95495674 47.30712215 44 49 C39.24008815 46.5479242 35.42170569 43.09224167 32 39 C32 38.34 32 37.68 32 37 C30.28114683 35.26111909 30.28114683 35.26111909 28.125 33.5 C26.00964496 31.71066742 23.95980876 29.95980876 22 28 C22 27.01 22 26.02 22 25 C21.41734375 24.7421875 20.8346875 24.484375 20.234375 24.21875 C17.8197097 22.90165983 16.18259823 21.44911616 14.25 19.5 C13.32960937 18.58734375 13.32960937 18.58734375 12.390625 17.65625 C11 16 11 16 11 14 C9.28114683 12.26111909 9.28114683 12.26111909 7.125 10.5 C5.00964496 8.71066742 2.95980876 6.95980876 1 5 C1 4.01 1 3.02 1 2 C0.34 1.67 -0.32 1.34 -1 1 C-0.67 0.67 -0.34 0.34 0 0 Z " fill="#75AFD5" transform="translate(229,311)"/>
<path d="M0 0 C3.79749344 1.89874672 6.58201205 5.39727945 9.5625 8.375 C10.60954102 9.40367187 10.60954102 9.40367187 11.67773438 10.453125 C12.67450195 11.44699219 12.67450195 11.44699219 13.69140625 12.4609375 C14.30185791 13.06728027 14.91230957 13.67362305 15.54125977 14.29833984 C17 16 17 16 18 19 C19.59066286 20.61244386 19.59066286 20.61244386 21.5625 22.1875 C24.64222869 24.80499093 27.61332892 27.48243032 30.5 30.3125 C31.50546875 31.29669922 31.50546875 31.29669922 32.53125 32.30078125 C34 34 34 34 34 36 C35.58737399 37.56648858 35.58737399 37.56648858 37.625 39.1875 C41.54255909 42.50557496 44.75641233 46.0266051 48 50 C47.67 50.33 47.34 50.66 47 51 C26.87205104 50.88365347 6.45825873 44.23370066 -11.25 34.875 C-11.86939453 34.55063965 -12.48878906 34.2262793 -13.12695312 33.89208984 C-16.5868409 32.0040946 -19.60768035 30.16920696 -22 27 C-21.95278851 24.28271648 -21.18255177 23.21686601 -19.44140625 21.1484375 C-18.82136719 20.56320312 -18.20132813 19.97796875 -17.5625 19.375 C-16.94503906 18.78460938 -16.32757813 18.19421875 -15.69140625 17.5859375 C-15.13324219 17.06257813 -14.57507813 16.53921875 -14 16 C-11.69720335 13.69720335 -9.63523414 11.24069925 -7.53515625 8.75390625 C-6.07478974 7.08544681 -4.656159 5.4756512 -3 4 C-2.34 4 -1.68 4 -1 4 C-0.67 2.68 -0.34 1.36 0 0 Z " fill="#75AFD5" transform="translate(161,368)"/>
<path d="M0 0 C4.59475379 1.46499396 9.1111051 3.01584356 13.5625 4.875 C21.75506416 8.21653404 30.39421044 10.94692893 39 13 C40.04285156 13.27457031 41.08570313 13.54914063 42.16015625 13.83203125 C60.94068907 18.62506953 80.24989233 21.11073933 99.57446289 22.31689453 C100.97619751 22.41139893 100.97619751 22.41139893 102.40625 22.5078125 C103.63311523 22.57959717 103.63311523 22.57959717 104.88476562 22.65283203 C107 23 107 23 110 25 C106.45899303 25.815393 102.91708323 26.62679621 99.375 27.4375 C97.87646484 27.78264648 97.87646484 27.78264648 96.34765625 28.13476562 C91.5795966 29.22415674 86.84010965 30.2771725 82 31 C79.97871516 31.30956615 77.95787659 31.62206056 75.9375 31.9375 C74.93589844 32.09089844 73.93429688 32.24429688 72.90234375 32.40234375 C70.04689913 32.89607206 70.04689913 32.89607206 67.67993164 33.95678711 C64.86479336 35.05263168 62.17883297 35.69367122 59.21875 36.2890625 C58.12949219 36.50820313 57.04023438 36.72734375 55.91796875 36.953125 C54.79003906 37.17484375 53.66210938 37.3965625 52.5 37.625 C51.37207031 37.85445313 50.24414062 38.08390625 49.08203125 38.3203125 C47.99277344 38.536875 46.90351563 38.7534375 45.78125 38.9765625 C44.79189453 39.17330566 43.80253906 39.37004883 42.78320312 39.57275391 C40.10138208 39.98443696 37.70497436 40.21311045 35 40 C32.578125 38.13671875 32.578125 38.13671875 30.25 35.6875 C29.47140625 34.88699219 28.6928125 34.08648437 27.890625 33.26171875 C26 31 26 31 25 28 C23.40933714 26.38755614 23.40933714 26.38755614 21.4375 24.8125 C18.35777131 22.19500907 15.38667108 19.51756968 12.5 16.6875 C11.8296875 16.03136719 11.159375 15.37523437 10.46875 14.69921875 C9 13 9 13 9 11 C7.27836601 9.29714205 7.27836601 9.29714205 5.125 7.5625 C2.53806278 5.41599116 0.88815626 3.83223438 -1 1 C-0.67 0.67 -0.34 0.34 0 0 Z " fill="#76AFD3" transform="translate(91,282)"/>
<path d="M0 0 C2.5 1.8125 2.5 1.8125 5 4 C5 4.99 5 5.98 5 7 C5.87398438 7.38671875 5.87398438 7.38671875 6.765625 7.78125 C9.1802903 9.09834017 10.81740177 10.55088384 12.75 12.5 C13.36359375 13.1084375 13.9771875 13.716875 14.609375 14.34375 C16 16 16 16 16 18 C17.78612311 19.80693756 17.78612311 19.80693756 20 21.625 C20.7425 22.25664062 21.485 22.88828125 22.25 23.5390625 C22.8275 24.02117187 23.405 24.50328125 24 25 C21.89641447 30.03838918 18.36874688 31.4030141 13.6875 33.8125 C12.84807861 34.24828369 12.00865723 34.68406738 11.14379883 35.13305664 C-6.74906501 44.11997015 -26.02850986 49.11979755 -46 50 C-45.236875 49.278125 -44.47375 48.55625 -43.6875 47.8125 C-41.01564632 45.24837255 -41.01564632 45.24837255 -39.7109375 42.7109375 C-37.53083974 39.25662735 -34.85916808 36.64319399 -31.9375 33.8125 C-31.39544922 33.27947266 -30.85339844 32.74644531 -30.29492188 32.19726562 C-28.86716372 30.79421528 -27.43390492 29.39676781 -26 28 C-24.34217389 26.34217389 -22.87188325 24.6729324 -21.375 22.875 C-12.17307692 12.08653846 -12.17307692 12.08653846 -8 10 C-7.566875 9.2575 -7.13375 8.515 -6.6875 7.75 C-4.80887696 4.68854024 -2.60110145 2.46050137 0 0 Z " fill="#75B0D5" transform="translate(271,369)"/>
<path d="M0 0 C-2.91307697 4.69329067 -6.18089583 8.45956126 -10.125 12.3125 C-10.93130859 13.1178418 -10.93130859 13.1178418 -11.75390625 13.93945312 C-15.71787309 17.85893654 -15.71787309 17.85893654 -18 19 C-18.4125 19.71929687 -18.825 20.43859375 -19.25 21.1796875 C-21.41939344 24.67589746 -24.05824133 27.2756154 -27 30.125 C-27.53367187 30.64964844 -28.06734375 31.17429687 -28.6171875 31.71484375 C-30.07457361 33.14685249 -31.53707604 34.57364914 -33 36 C-33.515625 36.62777344 -34.03125 37.25554687 -34.5625 37.90234375 C-36 39 -36 39 -38.25 38.99609375 C-39.1575 38.81175781 -40.065 38.62742187 -41 38.4375 C-42.05316406 38.23125 -43.10632813 38.025 -44.19140625 37.8125 C-45.44824219 37.544375 -46.70507812 37.27625 -48 37 C-49.61314153 36.66599115 -51.22643202 36.33270119 -52.83984375 36 C-56.90249337 35.1567278 -60.96033839 34.29252258 -65.01708984 33.42138672 C-67.34083005 32.92757047 -69.67021016 32.46431438 -72 32 C-74.24161324 31.50868751 -76.4800718 31.00449086 -78.71875 30.5 C-80.24620399 30.16521556 -81.77723913 29.84639121 -83.3112793 29.54321289 C-85.98449819 29.00313189 -88.64187113 28.41501185 -91.30078125 27.80859375 C-92.76547852 27.47504883 -92.76547852 27.47504883 -94.25976562 27.13476562 C-95.26716797 26.90466797 -96.27457031 26.67457031 -97.3125 26.4375 C-98.33923828 26.20353516 -99.36597656 25.96957031 -100.42382812 25.72851562 C-102.94935324 25.15293083 -105.4747384 24.57673962 -108 24 C-108 23.34 -108 22.68 -108 22 C-106.93362305 21.95625244 -106.93362305 21.95625244 -105.84570312 21.91162109 C-90.99711106 21.24206221 -76.59008233 19.88704361 -62 17.0625 C-61.34153076 16.93534607 -60.68306152 16.80819214 -60.00463867 16.67718506 C-55.6599087 15.82956873 -51.32898334 14.92425863 -47 14 C-45.90115479 13.77497803 -44.80230957 13.54995605 -43.67016602 13.31811523 C-35.46789623 11.55734065 -27.76834961 8.92461476 -19.9375 5.9375 C-18.1440918 5.26750977 -18.1440918 5.26750977 -16.31445312 4.58398438 C-10.44418214 2.46625514 -10.44418214 2.46625514 -4.82250977 -0.20483398 C-3 -1 -3 -1 0 0 Z " fill="#75AED2" transform="translate(344,283)"/>
<path d="M0 0 C-0.93590504 1.1055189 -1.87379858 2.20935453 -2.8125 3.3125 C-3.33457031 3.92738281 -3.85664063 4.54226563 -4.39453125 5.17578125 C-5.87246127 6.85508373 -7.41686523 8.42112097 -9 10 C-9.804375 10.94875 -10.60875 11.8975 -11.4375 12.875 C-14.61966923 16.60360233 -17.88956758 20.24890771 -21.1875 23.875 C-21.71077881 24.45878418 -22.23405762 25.04256836 -22.77319336 25.64404297 C-26.65413449 29.8847115 -26.65413449 29.8847115 -30 31 C-30.34265362 32.33096859 -30.67461232 33.66470537 -31 35 C-32.55859375 36.8515625 -32.55859375 36.8515625 -34.4375 38.625 C-35.05496094 39.21539062 -35.67242187 39.80578125 -36.30859375 40.4140625 C-36.86675781 40.93742187 -37.42492187 41.46078125 -38 42 C-40.16343011 44.03268602 -40.16343011 44.03268602 -42 47 C-45.36997254 45.5384164 -47.60745127 43.6619112 -50.1875 41.0625 C-50.88230469 40.37285156 -51.57710937 39.68320312 -52.29296875 38.97265625 C-54 37 -54 37 -55 34 C-56.59066286 32.38755614 -56.59066286 32.38755614 -58.5625 30.8125 C-61.60264162 28.20745111 -64.63235894 25.6039518 -67.5625 22.875 C-68.24441406 22.25367188 -68.92632812 21.63234375 -69.62890625 20.9921875 C-71 19 -71 19 -70.71484375 16.2578125 C-70.36099609 15.14019531 -70.36099609 15.14019531 -70 14 C-69.26136719 13.89042969 -68.52273437 13.78085937 -67.76171875 13.66796875 C-61.5334517 12.69455471 -55.52601613 11.4457332 -49.47265625 9.68359375 C-45.25715665 8.51817127 -41.00679286 7.84119779 -36.6875 7.1875 C-29.00499336 5.92605138 -21.53434926 3.93107271 -14 2 C-4.68789085 -0.30244457 -4.68789085 -0.30244457 0 0 Z " fill="#74AED3" transform="translate(205,312)"/>
<path d="M0 0 C3.84890788 3.14910644 7.50520224 6.76040448 9.75 11.25 C9.83527628 13.28232634 9.85716135 15.31747006 9.84765625 17.3515625 C9.84443359 18.56328125 9.84121094 19.775 9.83789062 21.0234375 C9.82532227 22.92996094 9.82532227 22.92996094 9.8125 24.875 C9.80798828 26.15375 9.80347656 27.4325 9.79882812 28.75 C9.78701203 31.91671292 9.77053815 35.08333356 9.75 38.25 C6.61055365 39.17873085 3.83780319 39.35657052 0.57006836 39.31591797 C-0.46102554 39.30615936 -1.49211945 39.29640076 -2.55445862 39.28634644 C-4.21552895 39.26448776 -4.21552895 39.26448776 -5.91015625 39.2421875 C-8.25325092 39.22467727 -10.59635015 39.20776841 -12.93945312 39.19140625 C-16.63529991 39.16037975 -20.33092073 39.12476994 -24.02661133 39.07861328 C-27.59198894 39.03640263 -31.15709772 39.01287347 -34.72265625 38.9921875 C-35.8320607 38.97356659 -36.94146515 38.95494568 -38.08448792 38.9357605 C-39.62640053 38.93057907 -39.62640053 38.93057907 -41.19946289 38.92529297 C-42.10451065 38.91561493 -43.00955841 38.90593689 -43.94203186 38.89596558 C-46.68125823 39.31615354 -47.54645985 40.12161186 -49.25 42.25 C-49.91 41.92 -50.57 41.59 -51.25 41.25 C-50.59 40.26 -49.93 39.27 -49.25 38.25 C-49.91 38.25 -50.57 38.25 -51.25 38.25 C-51.36651725 33.87522526 -51.43736 29.50085173 -51.5 25.125 C-51.53351563 23.8875 -51.56703125 22.65 -51.6015625 21.375 C-51.72375773 10.01084379 -51.72375773 10.01084379 -47.25 5.25 C-46.69699219 4.65832031 -46.14398438 4.06664062 -45.57421875 3.45703125 C-32.94923296 -7.29981822 -14.37055394 -7.73799058 0 0 Z M-41.8125 9.75 C-47.16954509 16.42733665 -45.25 23.54168166 -45.25 32.25 C-29.08 32.25 -12.91 32.25 3.75 32.25 C4.88465008 19.57319237 4.88465008 19.57319237 0.015625 9.30078125 C-0.64953125 8.72714844 -1.3146875 8.15351563 -2 7.5625 C-2.65484375 6.98113281 -3.3096875 6.39976563 -3.984375 5.80078125 C-14.52125232 -1.41152961 -33.21421616 0.34246592 -41.8125 9.75 Z " fill="#153341" transform="translate(237.25,4.75)"/>
<path d="M0 0 C2.2421875 -0.02734375 2.2421875 -0.02734375 5.9296875 0.47265625 C5.9296875 1.13265625 5.9296875 1.79265625 5.9296875 2.47265625 C5.2696875 2.47265625 4.6096875 2.47265625 3.9296875 2.47265625 C3.68476563 3.17003906 3.43984375 3.86742187 3.1875 4.5859375 C-10.9734755 37.08581605 -47.85619551 65.73627432 -79.82568359 78.57958984 C-85.82771505 80.82197857 -91.90713175 82.72761992 -98.0703125 84.47265625 C-99.93236328 85.01212891 -99.93236328 85.01212891 -101.83203125 85.5625 C-111.52610899 88.00572285 -121.14985673 87.75821308 -131.0703125 87.47265625 C-129.46180341 84.62503405 -128.09087877 82.79849137 -124.90625 81.78173828 C-122.1340597 81.2810273 -119.36460134 80.89254936 -116.5703125 80.53515625 C-95.05817832 77.25149374 -75.37884142 70.3756792 -57.0703125 58.47265625 C-56.7403125 59.13265625 -56.4103125 59.79265625 -56.0703125 60.47265625 C-54.0540892 59.75702359 -54.0540892 59.75702359 -52.0703125 58.47265625 C-51.96203125 57.87066406 -51.85375 57.26867187 -51.7421875 56.6484375 C-50.76432633 53.48175917 -48.86766852 52.40768554 -46.2578125 50.41015625 C-29.87080645 37.44064757 -14.23674779 22.18488613 -4.3828125 3.53515625 C-2.0703125 0.47265625 -2.0703125 0.47265625 0 0 Z " fill="#183543" transform="translate(353.0703125,336.52734375)"/>
<path d="M0 0 C0.33 0 0.66 0 1 0 C0.39011791 31.49209344 -11.72297131 61.4193764 -26 89 C-26.66 88.01 -27.32 87.02 -28 86 C-28.99 85.67 -29.98 85.34 -31 85 C-29.52581922 80.17336748 -27.52728569 75.82349344 -25.3125 71.3125 C-16.07665354 51.97488048 -9.88809797 31.83666587 -7.359375 10.51953125 C-7 8 -7 8 -6 6 C-5.34 6 -4.68 6 -4 6 C-3.566875 5.071875 -3.566875 5.071875 -3.125 4.125 C-2 2 -2 2 0 0 Z " fill="#193643" transform="translate(386,247)"/>
<path d="M0 0 C4.05860414 2.99983784 6.198889 5.99305626 7 11 C5.88470058 14.65570366 4.83809362 17.16190638 2.125 19.875 C-0.43478733 21.23018153 -2.08474827 21.8644069 -5 22 C-8.45864045 20.8669971 -11.14210835 19.71952203 -13.9375 17.375 C-15.62152974 13.61069823 -15.79194765 10.03893301 -15 6 C-10.77112557 0.65826387 -6.80161584 -1.14883339 0 0 Z " fill="#0F0F0F" transform="translate(241,203)"/>
<path d="M0 0 C4.05860414 2.99983784 6.198889 5.99305626 7 11 C5.88470058 14.65570366 4.83809362 17.16190638 2.125 19.875 C-0.43478733 21.23018153 -2.08474827 21.8644069 -5 22 C-8.45864045 20.8669971 -11.14210835 19.71952203 -13.9375 17.375 C-15.62152974 13.61069823 -15.79194765 10.03893301 -15 6 C-10.77112557 0.65826387 -6.80161584 -1.14883339 0 0 Z " fill="#0F0F0F" transform="translate(205,203)"/>
<path d="M0 0 C0 7.26 0 14.52 0 22 C-3.465 20.02 -3.465 20.02 -7 18 C-6.67 12.39 -6.34 6.78 -6 1 C-3 0 -3 0 0 0 Z " fill="#173340" transform="translate(387,223)"/>
<path d="M0 0 C0.99 0.33 1.98 0.66 3 1 C2.0409375 1.7425 2.0409375 1.7425 1.0625 2.5 C-1.81515269 5.98806387 -1.70230736 8.53461041 -2 13 C-2.33 13 -2.66 13 -3 13 C-3.4726477 4.80743982 -3.4726477 4.80743982 -1.5 1.4375 C-0.7575 0.7259375 -0.7575 0.7259375 0 0 Z " fill="#595959" transform="translate(229,205)"/>
<path d="M0 0 C0.99 0.33 1.98 0.66 3 1 C2.0409375 1.7425 2.0409375 1.7425 1.0625 2.5 C-1.81515269 5.98806387 -1.70230736 8.53461041 -2 13 C-2.33 13 -2.66 13 -3 13 C-3.4726477 4.80743982 -3.4726477 4.80743982 -1.5 1.4375 C-0.7575 0.7259375 -0.7575 0.7259375 0 0 Z " fill="#595959" transform="translate(193,205)"/>
<path d="M0 0 C2.64 0 5.28 0 8 0 C7.67 0.99 7.34 1.98 7 3 C4.69 2.67 2.38 2.34 0 2 C0 1.34 0 0.68 0 0 Z " fill="#98AAB5" transform="translate(236,305)"/>
</svg>
